<?xml version="1.0" encoding="UTF-8" standalone="no"?>
<!-- Created with Inkscape (http://www.inkscape.org/) -->

<svg
   xmlns:dc="http://purl.org/dc/elements/1.1/"
   xmlns:cc="http://creativecommons.org/ns#"
   xmlns:rdf="http://www.w3.org/1999/02/22-rdf-syntax-ns#"
   xmlns:svg="http://www.w3.org/2000/svg"
   xmlns="http://www.w3.org/2000/svg"
   xmlns:sodipodi="http://sodipodi.sourceforge.net/DTD/sodipodi-0.dtd"
   xmlns:inkscape="http://www.inkscape.org/namespaces/inkscape"
   version="1.1"
   id="svg965"
   xml:space="preserve"
   width="813.33331"
   height="142.66667"
   viewBox="0 0 813.33331 142.66667"
   sodipodi:docname="Original_metaGER.svg"
   inkscape:version="0.92.3 (2405546, 2018-03-11)"><metadata
     id="metadata971"><rdf:RDF><cc:Work
         rdf:about=""><dc:format>image/svg+xml</dc:format><dc:type
           rdf:resource="http://purl.org/dc/dcmitype/StillImage" /><dc:title></dc:title></cc:Work></rdf:RDF></metadata><defs
     id="defs969" /><sodipodi:namedview
     pagecolor="#ffffff"
     bordercolor="#666666"
     borderopacity="1"
     objecttolerance="10"
     gridtolerance="10"
     guidetolerance="10"
     inkscape:pageopacity="0"
     inkscape:pageshadow="2"
     inkscape:window-width="1853"
     inkscape:window-height="1025"
     id="namedview967"
     showgrid="false"
     inkscape:zoom="0.54344264"
     inkscape:cx="406.66666"
     inkscape:cy="71.333336"
     inkscape:window-x="67"
     inkscape:window-y="27"
     inkscape:window-maximized="1"
     inkscape:current-layer="g973" /><g
     id="g973"
     inkscape:groupmode="layer"
     inkscape:label="ink_ext_XXXXXX"
     transform="matrix(1.3333333,0,0,-1.3333333,0,142.66667)"><g
       id="g975"
       transform="scale(0.1)"><path
         d="M 8.11328,805.719 V 6.87109 H 118.301 V 695.531 H 540.68 V 6.87109 H 647.805 V 695.531 h 264.754 c 104.061,0 156.101,-55.09 156.101,-163.746 V 6.87109 h 111.71 V 550.148 c 0,169.872 -82.64,255.571 -246.39,255.571 H 8.11328"
         style="fill:#f47216;fill-opacity:1;fill-rule:nonzero;stroke:none"
         id="path977"
         inkscape:connector-curvature="0" /><path
         d="M 2074.1,6.87109 V 115.527 h -456.05 c -101,0 -151.5,53.563 -151.5,157.629 V 547.09 c 0,108.652 52.04,149.976 156.1,149.976 h 243.32 c 82.64,0 125.49,-41.32 125.49,-122.429 v -15.305 c 0,-70.391 -41.32,-105.594 -123.96,-105.594 h -325.14 v -94.886 l 354.22,0.003 c 136.2,0 202.01,59.692 202.01,177.528 v 58.152 c 0,140.785 -70.4,211.184 -212.72,211.184 h -281.59 c -165.28,0 -249.45,-85.699 -249.45,-255.571 V 262.445 C 1354.83,92.5703 1439,6.87109 1604.28,6.87109 h 469.82"
         style="fill:#f47216;fill-opacity:1;fill-rule:nonzero;stroke:none"
         id="path979"
         inkscape:connector-curvature="0" /><path
         d="m 2654.11,115.527 h -21.53 c -98.36,0 -148.88,50.86 -151.4,149.731 v 431.808 h 172.93 v 108.653 h -172.93 v 73.277 h 0.16 v 68.363 44.43 c 0,48.231 -19.15,74.091 -69.52,74.091 h -42.19 V 952.496 h -0.17 V 805.719 H 2219.49 V 697.066 h 149.97 V 550.145 l -0.1,0.003 V 262.445 c 0,-3.265 0.04,-6.492 0.1,-9.695 v -19.105 h 0.77 C 2379.45,82.9492 2463.15,6.87109 2618.8,6.87109 h 35.31 V 115.527"
         style="fill:#f47216;fill-opacity:1;fill-rule:nonzero;stroke:none"
         id="path981"
         inkscape:connector-curvature="0" /><path
         d="M 2828.05,805.719 V 575.398 h 69.31 c 27.25,0 40.87,14.426 40.87,42.879 v 78.789 h 345.86 c 101.01,0 151.51,-53.668 151.51,-157.628 v -85.7 h -497.37 l 0.01,-52.015 c 0,-28.313 -13.75,-42.871 -40.87,-42.871 h -93.81 v -130 -10.793 c 0,-140.7895 70.4,-211.18791 212.72,-211.18791 h 281.59 c 165.27,0 249.45,85.69921 249.45,255.57391 v 287.703 c 0,169.872 -84.18,255.571 -249.45,255.571 z m 289.79,-446.867 h 74.76 c 50.36,0 69.52,-25.856 69.52,-74.098 V 171.961 c 0,-38.305 -19.21,-58.168 -56.76,-58.168 h -38.57 c -32.53,0 -48.95,19.25 -48.95,57.465 v 187.594"
         style="fill:#f47216;fill-opacity:1;fill-rule:nonzero;stroke:none"
         id="path983"
         inkscape:connector-curvature="0" /><path
         d="m 3966.63,1065.88 c -166.8,0 -249.45,-84.169 -249.45,-254.032 l 0.01,-550.938 c 0,-169.8631 82.64,-254.03891 249.45,-254.03891 h 344.33 c 149.97,0 224.96,74.98831 224.96,226.49591 V 575.398 H 4110.48 V 480.52 h 316.79 V 254.789 c 0,-93.34 -45.92,-139.262 -139.26,-139.262 h -299.95 c -102.52,0 -154.56,52.028 -154.56,157.625 l -0.01,520.328 c 0,105.598 52.03,157.625 154.57,157.625 h 521.85 v 114.775 h -543.28"
         style="fill:#f47216;fill-opacity:1;fill-rule:nonzero;stroke:none"
         id="path985"
         inkscape:connector-curvature="0" /><path
         d="m 5875,805.719 c -166.81,0 -249.45,-85.699 -249.45,-255.824 V 6.87109 h 111.72 V 531.535 c 0,108.906 53.56,163.996 157.62,163.996 h 195.89 V 805.719 H 5875"
         style="fill:#f47216;fill-opacity:1;fill-rule:nonzero;stroke:none"
         id="path987"
         inkscape:connector-curvature="0" /><path
         d="M 5426.6,6.87109 V 115.527 h -456.05 c -101,0 -151.5,53.563 -151.5,157.629 V 547.09 c 0,108.652 52.03,149.976 156.09,149.976 h 243.33 c 82.64,0 125.49,-41.32 125.49,-122.429 v -15.305 c 0,-70.391 -41.32,-105.594 -123.96,-105.594 h -325.14 v -94.886 l 354.22,0.003 c 136.2,0 202.01,59.692 202.01,177.528 v 58.152 c 0,140.785 -70.4,211.184 -212.72,211.184 h -281.59 c -165.28,0 -249.45,-85.699 -249.45,-255.571 V 262.445 c 0,-169.8747 84.17,-255.57391 249.45,-255.57391 h 469.82"
         style="fill:#f47216;fill-opacity:1;fill-rule:nonzero;stroke:none"
         id="path989"
         inkscape:connector-curvature="0" /></g></g></svg>