<?xml version="1.0" encoding="UTF-8" standalone="no"?>
<!DOCTYPE svg PUBLIC "-//W3C//DTD SVG 1.1//EN" "http://www.w3.org/Graphics/SVG/1.1/DTD/svg11.dtd">
<svg width="100%" height="100%" viewBox="0 0 20 20" version="1.1" xmlns="http://www.w3.org/2000/svg" xmlns:xlink="http://www.w3.org/1999/xlink" xml:space="preserve" xmlns:serif="http://www.serif.com/" style="fill-rule:evenodd;clip-rule:evenodd;stroke-linejoin:round;stroke-miterlimit:2;">
    <g transform="matrix(1.00418,0,0,1.00604,-0.00836824,-0.0129025)">
        <path d="M9.944,2.135C5.564,2.135 2,5.699 2,10.08C2,14.461 5.564,18.024 9.944,18.024C14.324,18.024 17.888,14.46 17.888,10.08C17.888,5.7 14.325,2.135 9.944,2.135ZM14.722,7.188C14.722,7.212 14.637,7.27 14.588,7.335C14.372,7.627 14.097,7.887 13.807,8.106C13.765,8.138 13.672,8.17 13.672,8.231C13.672,9.761 13.27,11.289 12.155,12.398C10.734,13.809 8.598,14.193 6.707,13.67C6.341,13.569 5.988,13.427 5.652,13.249C5.541,13.188 5.429,13.125 5.322,13.055C5.295,13.033 5.274,13.013 5.297,12.998C5.32,12.986 5.338,12.985 5.422,12.998C5.951,13.05 6.497,12.972 6.997,12.796C7.272,12.7 7.863,12.506 8.033,12.247C8.037,12.241 8.041,12.241 8.045,12.235C7.976,12.219 7.907,12.219 7.838,12.207C7.324,12.06 6.638,11.802 6.32,10.936C6.299,10.885 6.32,10.859 6.372,10.869C6.795,10.902 6.947,10.879 7.095,10.847C7.012,10.833 6.928,10.805 6.85,10.772C6.203,10.525 5.73,9.894 5.643,9.211C5.633,9.132 5.627,9.065 5.631,8.992C5.635,8.941 5.657,8.925 5.702,8.953C6.035,9.125 6.409,9.166 6.439,9.16C6.356,9.096 6.279,9.025 6.205,8.954C5.643,8.422 5.425,7.34 5.874,6.666C5.911,6.611 5.935,6.611 5.979,6.662C7.006,7.832 8.271,8.378 9.797,8.605C9.838,8.611 9.841,8.605 9.836,8.561C9.796,8.292 9.791,8.029 9.856,7.763C9.923,7.487 10.055,7.227 10.233,7.007C10.406,6.794 10.622,6.618 10.865,6.491C11.107,6.365 11.375,6.288 11.648,6.27C11.928,6.252 12.213,6.297 12.474,6.403C12.672,6.484 12.848,6.593 13.012,6.733C13.046,6.761 13.077,6.796 13.109,6.832C13.129,6.853 13.153,6.86 13.186,6.853C13.576,6.755 13.942,6.618 14.297,6.428C14.313,6.42 14.326,6.416 14.346,6.424C14.363,6.436 14.356,6.456 14.348,6.472C14.285,6.68 14.172,6.871 14.036,7.039C13.947,7.149 13.725,7.422 13.574,7.447C13.891,7.394 14.303,7.313 14.598,7.18C14.636,7.163 14.721,7.156 14.721,7.18C14.722,7.18 14.722,7.184 14.722,7.188Z" style="fill:rgb(124,198,250);fill-rule:nonzero;"/>
    </g>
</svg>
