<?xml version="1.0" encoding="UTF-8" standalone="no"?>
<!DOCTYPE svg PUBLIC "-//W3C//DTD SVG 1.1//EN" "http://www.w3.org/Graphics/SVG/1.1/DTD/svg11.dtd">
<svg width="100%" height="100%" viewBox="0 0 20 20" version="1.1" xmlns="http://www.w3.org/2000/svg" xmlns:xlink="http://www.w3.org/1999/xlink" xml:space="preserve" xmlns:serif="http://www.serif.com/" style="fill-rule:evenodd;clip-rule:evenodd;stroke-linejoin:round;stroke-miterlimit:2;">
    <g transform="matrix(1.0098,0,0,1.01027,-0.0196097,-0.116422)">
        <path d="M9.904,17.925C5.581,17.921 2.005,14.342 2,10.015C1.995,5.676 5.604,2.075 9.938,2.095C14.266,2.115 17.838,5.709 17.82,10.028C17.804,14.361 14.228,17.93 9.904,17.925ZM8.849,13.251L10.758,13.251C10.758,12.506 10.75,11.794 10.762,11.081C10.765,10.792 10.783,10.496 10.847,10.215C10.93,9.848 11.198,9.642 11.576,9.65C11.952,9.657 12.155,9.897 12.197,10.258C12.223,10.489 12.221,10.723 12.221,10.955C12.224,11.721 12.222,12.487 12.222,13.247L14.146,13.247C14.146,12.076 14.168,10.939 14.138,9.806C14.12,9.133 13.882,8.528 13.187,8.273C12.463,8.006 11.757,8.069 11.129,8.566C10.978,8.686 10.836,8.816 10.662,8.965C10.648,8.697 10.638,8.483 10.626,8.258L8.849,8.258L8.849,13.251ZM5.713,8.253L5.713,13.254L7.572,13.254L7.572,8.253L5.713,8.253ZM6.605,7.432C7.175,7.44 7.594,7.07 7.597,6.56C7.599,6.07 7.188,5.684 6.656,5.674C6.101,5.665 5.668,6.049 5.665,6.554C5.664,7.048 6.065,7.424 6.605,7.432Z" style="fill:rgb(1,115,178);"/>
    </g>
</svg>
