<?xml version="1.0" encoding="UTF-8" standalone="no"?>
<!DOCTYPE svg PUBLIC "-//W3C//DTD SVG 1.1//EN" "http://www.w3.org/Graphics/SVG/1.1/DTD/svg11.dtd">
<svg width="100%" height="100%" viewBox="0 0 20 20" version="1.1" xmlns="http://www.w3.org/2000/svg" xmlns:xlink="http://www.w3.org/1999/xlink" xml:space="preserve" xmlns:serif="http://www.serif.com/" style="fill-rule:evenodd;clip-rule:evenodd;stroke-linejoin:round;stroke-miterlimit:2;">
    <g transform="matrix(1.0061,0,0,1.00565,-0.0121942,-0.0114423)">
        <path d="M2,9.975C1.997,5.597 5.53,2.035 9.925,2.026C14.319,2.018 17.89,5.583 17.903,9.964C17.916,14.391 14.357,17.909 10.013,17.936C5.575,17.961 2,14.378 2,9.975ZM5.419,11.455C5.398,11.883 5.509,12.279 5.734,12.639C5.866,12.851 6.013,13.059 6.182,13.242C6.534,13.619 6.964,13.896 7.429,14.117C7.808,14.297 8.206,14.425 8.614,14.516C8.996,14.601 9.386,14.647 9.778,14.652C10.081,14.655 10.385,14.641 10.688,14.615C10.91,14.597 11.134,14.562 11.352,14.511C11.587,14.456 11.82,14.384 12.049,14.302C12.267,14.223 12.482,14.135 12.689,14.032C12.977,13.888 13.245,13.71 13.492,13.501C13.884,13.17 14.197,12.783 14.388,12.301C14.52,11.968 14.57,11.626 14.536,11.273C14.527,11.169 14.549,11.098 14.645,11.055C14.66,11.048 14.674,11.039 14.687,11.03C14.914,10.881 15.077,10.675 15.153,10.417C15.234,10.144 15.223,9.872 15.108,9.6C14.947,9.22 14.53,8.914 14.086,8.911C13.811,8.909 13.562,8.983 13.347,9.156C13.292,9.2 13.239,9.21 13.175,9.171C13.024,9.079 12.876,8.98 12.718,8.898C12.532,8.802 12.342,8.71 12.145,8.638C11.931,8.558 11.709,8.493 11.487,8.443C11.221,8.383 10.951,8.342 10.681,8.299C10.576,8.282 10.468,8.281 10.362,8.27C10.226,8.255 10.215,8.229 10.245,8.093C10.317,7.784 10.384,7.474 10.451,7.166C10.499,6.946 10.546,6.728 10.592,6.509C10.631,6.327 10.67,6.146 10.704,5.963C10.724,5.857 10.756,5.828 10.865,5.85C11.018,5.882 11.17,5.916 11.322,5.95C11.648,6.022 11.973,6.094 12.299,6.163C12.373,6.179 12.419,6.211 12.429,6.288C12.447,6.436 12.515,6.563 12.611,6.675C12.872,6.983 13.305,7.068 13.657,6.858C14.034,6.634 14.188,6.188 13.986,5.768C13.845,5.474 13.6,5.314 13.28,5.296C12.981,5.279 12.738,5.41 12.565,5.654C12.506,5.738 12.445,5.747 12.357,5.726C12.154,5.678 11.951,5.635 11.749,5.592C11.541,5.547 11.332,5.502 11.123,5.459C10.95,5.423 10.776,5.384 10.601,5.355C10.491,5.338 10.394,5.406 10.369,5.507C10.339,5.624 10.315,5.741 10.29,5.859C10.252,6.039 10.215,6.217 10.178,6.397C10.136,6.595 10.094,6.793 10.053,6.991C10.012,7.18 9.973,7.37 9.933,7.559C9.893,7.738 9.852,7.917 9.819,8.097C9.793,8.241 9.786,8.253 9.642,8.271C9.349,8.306 9.055,8.331 8.765,8.382C8.515,8.426 8.267,8.488 8.027,8.567C7.59,8.709 7.173,8.899 6.794,9.168C6.737,9.208 6.678,9.216 6.611,9.172C6.518,9.111 6.423,9.049 6.321,9.007C6.001,8.873 5.675,8.886 5.373,9.049C5.011,9.245 4.796,9.553 4.766,9.973C4.743,10.277 4.81,10.557 5.018,10.787C5.118,10.896 5.238,10.987 5.356,11.079C5.406,11.118 5.424,11.157 5.419,11.217C5.416,11.295 5.419,11.375 5.419,11.455Z" style="fill:rgb(255,69,0);"/>
        <path d="M8.191,10.07C8.642,10.079 9.001,10.439 8.992,10.894C8.985,11.35 8.645,11.697 8.179,11.696C7.694,11.695 7.366,11.325 7.366,10.883C7.366,10.429 7.731,10.067 8.191,10.07Z" style="fill:rgb(255,69,0);"/>
        <path d="M11.776,10.073C12.218,10.077 12.582,10.439 12.578,10.889C12.575,11.342 12.228,11.703 11.762,11.697C11.288,11.691 10.953,11.325 10.959,10.875C10.964,10.426 11.32,10.075 11.776,10.073Z" style="fill:rgb(255,69,0);"/>
        <path d="M9.966,13.652C9.567,13.655 9.178,13.596 8.8,13.48C8.537,13.399 8.288,13.278 8.081,13.086C7.958,12.972 7.949,12.851 8.058,12.748C8.124,12.685 8.233,12.682 8.313,12.737C8.418,12.81 8.521,12.887 8.63,12.952C8.827,13.07 9.05,13.13 9.273,13.163C9.556,13.204 9.844,13.227 10.13,13.225C10.436,13.223 10.74,13.171 11.033,13.078C11.255,13.008 11.458,12.895 11.638,12.745C11.724,12.673 11.827,12.683 11.902,12.759C11.985,12.843 11.992,12.939 11.918,13.029C11.81,13.164 11.666,13.255 11.514,13.331C11.028,13.571 10.502,13.641 9.966,13.652Z" style="fill:rgb(255,69,0);"/>
    </g>
</svg>
