<?xml version="1.0" encoding="UTF-8" standalone="no"?>
<!DOCTYPE svg PUBLIC "-//W3C//DTD SVG 1.1//EN" "http://www.w3.org/Graphics/SVG/1.1/DTD/svg11.dtd">
<svg width="100%" height="100%" viewBox="0 0 20 20" version="1.1" xmlns="http://www.w3.org/2000/svg" xmlns:xlink="http://www.w3.org/1999/xlink" xml:space="preserve" xmlns:serif="http://www.serif.com/" style="fill-rule:evenodd;clip-rule:evenodd;stroke-linejoin:round;stroke-miterlimit:2;">
    <path d="M12.866,8.033C12.817,7.724 12.699,7.442 12.483,7.209C12.18,6.882 11.798,6.755 11.36,6.768C10.859,6.784 10.468,6.99 10.211,7.429C10.143,7.546 10.072,7.661 9.999,7.784C9.917,7.647 9.841,7.517 9.762,7.388C9.611,7.142 9.403,6.962 9.131,6.859C8.91,6.775 8.68,6.755 8.447,6.771C8.114,6.794 7.82,6.912 7.577,7.146C7.251,7.461 7.111,7.86 7.104,8.298C7.089,9.191 7.098,10.084 7.097,10.978C7.097,10.992 7.1,11.006 7.103,11.023L8.108,11.023L8.108,10.925C8.108,10.327 8.107,9.729 8.108,9.131C8.108,8.889 8.106,8.647 8.115,8.404C8.131,7.998 8.364,7.769 8.757,7.763C9.126,7.758 9.358,7.931 9.447,8.29C9.473,8.392 9.49,8.499 9.491,8.603C9.496,9.055 9.494,9.506 9.495,9.958L9.495,10.05L10.505,10.05L10.505,9.964C10.505,9.555 10.504,9.147 10.506,8.737C10.506,8.632 10.511,8.525 10.524,8.421C10.546,8.251 10.598,8.091 10.717,7.962C10.879,7.786 11.089,7.754 11.313,7.768C11.575,7.783 11.768,7.92 11.836,8.173C11.874,8.312 11.889,8.461 11.89,8.605C11.895,9.379 11.892,10.154 11.892,10.929C11.892,10.961 11.894,10.992 11.896,11.021L12.903,11.021L12.903,10.962C12.903,10.132 12.904,9.301 12.901,8.471C12.9,8.324 12.889,8.177 12.866,8.033Z" style="fill:rgb(48,136,212);fill-rule:nonzero;"/>
    <g transform="matrix(1.01131,0,0,1.01067,-0.113632,-0.0869492)">
        <path d="M10.028,2.065C5.693,2.045 2.085,5.646 2.09,9.985C2.095,14.313 5.671,17.891 9.994,17.896C14.318,17.9 17.894,14.332 17.911,9.998C17.928,5.679 14.356,2.084 10.028,2.065ZM14.46,10.033C14.434,10.319 14.391,10.603 14.351,10.887C14.315,11.141 14.185,11.35 14.015,11.535C13.638,11.944 13.163,12.196 12.642,12.371C12.303,12.485 11.95,12.528 11.597,12.567C11.093,12.623 10.587,12.672 10.08,12.641C9.638,12.614 9.197,12.564 8.756,12.513C8.522,12.486 8.291,12.433 8.058,12.391C8.033,12.999 8.277,13.525 8.919,13.719C9.273,13.826 9.638,13.843 10.003,13.854C10.559,13.872 11.104,13.797 11.64,13.65C11.652,13.647 11.664,13.646 11.682,13.642C11.687,13.72 11.693,13.794 11.696,13.869C11.704,14.038 11.709,14.207 11.718,14.376C11.72,14.423 11.706,14.446 11.661,14.466C11.329,14.613 10.982,14.704 10.626,14.761C9.609,14.925 8.609,14.83 7.628,14.541C6.885,14.322 6.373,13.828 6.039,13.139C5.805,12.656 5.679,12.141 5.6,11.614C5.483,10.843 5.465,10.067 5.465,9.29C5.465,8.856 5.456,8.421 5.483,7.989C5.532,7.185 5.799,6.47 6.398,5.903C6.654,5.661 6.959,5.515 7.294,5.422C7.767,5.291 8.249,5.221 8.737,5.178C9.368,5.122 10,5.103 10.634,5.135C11.307,5.169 11.973,5.238 12.631,5.399C13.344,5.573 13.83,6.013 14.162,6.645C14.383,7.066 14.493,7.52 14.519,7.993C14.557,8.674 14.522,9.354 14.46,10.033Z" style="fill:rgb(48,136,212);fill-rule:nonzero;"/>
    </g>
</svg>
