<svg xmlns="http://www.w3.org/2000/svg" width="20" height="20" viewBox="0 0 20 20">
  <g id="Group_2391" data-name="Group 2391" transform="translate(-6053 -3779)">
    <path id="Subtraction_19" data-name="Subtraction 19" d="M-5783,22039a8.01,8.01,0,0,1-8-8,8.009,8.009,0,0,1,8-8,8.009,8.009,0,0,1,8,8A8.01,8.01,0,0,1-5783,22039Zm2.158-9.879a.726.726,0,0,1,.569.229.987.987,0,0,1,.19.773l-.022.184,0,.033c-.064.547-.2,1.682-.245,2.309a1.622,1.622,0,0,0,.351,1.234,1.076,1.076,0,0,0,.813.332,3.01,3.01,0,0,0,1.429-.365l-.308-1.053-.076.031a1.179,1.179,0,0,1-.43.127c-.241,0-.358-.166-.358-.5,0-.236.1-1,.188-1.674l0-.02c.045-.342.08-.607.1-.809a2.061,2.061,0,0,0-.434-1.648,1.561,1.561,0,0,0-1.189-.523,2.589,2.589,0,0,0-1.973.861,1.6,1.6,0,0,0-1.458-.861,2.159,2.159,0,0,0-1.606.688,1.3,1.3,0,0,0-1.29-.687,3.635,3.635,0,0,0-1.648.521l.469,1.068a1.912,1.912,0,0,1,.809-.316.331.331,0,0,1,.262.107.565.565,0,0,1,.093.445c-.038.359-.477,4.48-.477,4.48h1.421s.01-.107.029-.275c.074-.693.269-2.533.346-3.164.114-.939.578-1.525,1.209-1.525a.673.673,0,0,1,.52.2.994.994,0,0,1,.2.762c-.029.395-.346,3.137-.443,3.969l0,.031h1.429s0-.041.012-.111c.258-2.41.361-3.264.4-3.557C-5781.838,22029.467-5781.225,22029.121-5780.844,22029.121Z" transform="translate(11846.002 -18242)" fill="#7abb3b"/>
    <rect id="Rectangle_2290" data-name="Rectangle 2290" width="20" height="20" transform="translate(6053 3779)" fill="none"/>
  </g>
</svg>
