<?xml version="1.0" encoding="UTF-8" standalone="no"?>
<!DOCTYPE svg PUBLIC "-//W3C//DTD SVG 1.1//EN" "http://www.w3.org/Graphics/SVG/1.1/DTD/svg11.dtd">
<svg width="100%" height="100%" viewBox="0 0 20 20" version="1.1" xmlns="http://www.w3.org/2000/svg" xmlns:xlink="http://www.w3.org/1999/xlink" xml:space="preserve" xmlns:serif="http://www.serif.com/" style="fill-rule:evenodd;clip-rule:evenodd;stroke-linejoin:round;stroke-miterlimit:2;">
    <g transform="matrix(1.00372,0,0,1.00464,-0.00743095,-0.0094379)">
        <path d="M9.952,2.032C5.567,2.032 2,5.6 2,9.984C2,14.368 5.567,17.935 9.952,17.935C14.337,17.935 17.904,14.368 17.904,9.984C17.904,5.6 14.336,2.032 9.952,2.032ZM11.722,5.585L11.081,5.585C10.847,5.585 10.722,7.059 10.722,7.293L10.722,7.585L11.966,7.585L11.897,8.585L10.722,8.585L10.722,14.585L8.722,14.585L8.722,8.585L7.722,8.585L7.722,7.585L8.722,7.585L8.722,6.935C8.722,5.987 9.474,4.586 10.422,4.586L11.722,4.586L11.722,5.585Z" style="fill:rgb(60,90,153);fill-rule:nonzero;"/>
    </g>
</svg>
